<?xml version="1.0" encoding="UTF-8"?>
<svg id="Capa_1" data-name="Capa 1" xmlns="http://www.w3.org/2000/svg" viewBox="0 0 332.05 207">
  <defs>
    <style>
      .cls-1 {
        fill: #58b6c6;
        stroke-width: 0px;
      }
    </style>
  </defs>
  <path class="cls-1" d="M291.44,64.68c-5.67,0-11.05,1.17-15.95,3.26-3.75-23.1-23.79-40.74-47.95-40.74-10.31,0-19.86,3.22-27.72,8.69C188,14.5,165.23,0,139.06,0c-37.42,0-67.9,29.63-69.29,66.71-6.71-3.68-14.42-5.77-22.61-5.77C21.11,60.94,0,82.05,0,108.09s21.11,47.15,47.15,47.15c.09,0,.18,0,.27,0,2.76,29.04,27.22,51.77,56.99,51.77,21.63,0,40.45-11.99,50.19-29.69,4.87,2.28,10.28,3.59,16.01,3.59,9.58,0,18.3-3.59,24.96-9.46,8.3,10.31,21.01,16.93,35.27,16.93,25.01,0,45.27-20.27,45.27-45.27,0-.07-.01-.14-.01-.21,4.73,1.93,9.9,3.02,15.33,3.02,22.43,0,40.61-18.18,40.61-40.61,0-22.43-18.18-40.61-40.61-40.61Z"/>
</svg>